<svg width="113" height="80" viewBox="0 0 113 80" fill="none" xmlns="http://www.w3.org/2000/svg">
<g clip-path="url(#clip0_102_917)">
<path fill-rule="evenodd" clip-rule="evenodd" d="M56.24 61.584C47.744 63.024 31.728 65.728 27.008 80C16.432 76.432 6.04798 67.104 2.23998 56.192C-1.16802 46.448 -0.592021 37.248 3.11998 29.328C15.408 3.152 59.792 -2.48 84.768 0.88C95.392 2.304 106.48 6.256 111.024 16.736C113.392 22.208 113.216 28.72 111.6 34.272C108.064 46.464 99.072 52.432 89.76 55.968C81.36 59.152 67.584 59.664 56.24 61.568M106.912 0C105.456 0 104.32 1.072 104.32 2.448C104.32 3.824 105.456 4.928 106.896 4.928C108.336 4.928 109.44 3.856 109.44 2.448C109.44 1.04 108.336 0 106.912 0ZM106.88 0.432C108.032 0.432 108.896 1.344 108.896 2.464C108.896 3.584 108.048 4.496 106.912 4.48C105.744 4.48 104.864 3.584 104.864 2.448C104.864 1.312 105.728 0.432 106.88 0.432ZM106.432 2.736H106.752C107.12 2.736 107.296 2.864 107.36 3.152C107.44 3.488 107.504 3.728 107.584 3.808H108.096C108.032 3.712 107.968 3.568 107.888 3.168C107.808 2.832 107.68 2.624 107.456 2.528V2.496C107.728 2.4 107.968 2.208 107.968 1.888C107.968 1.648 107.856 1.44 107.696 1.328C107.536 1.2 107.312 1.12 106.88 1.12C106.512 1.12 106.224 1.152 105.968 1.2V3.776H106.464V2.704L106.432 2.736ZM106.432 1.568C106.432 1.568 106.624 1.536 106.816 1.536C107.28 1.536 107.456 1.728 107.456 1.968C107.456 2.256 107.12 2.368 106.768 2.368H106.432V1.568Z" fill="#E80029"/>
<path d="M31.024 33.744L28.624 27.648C27.392 24.512 25.872 21.888 22 22.48C19.312 22.896 16.128 25.088 15.424 26.544C14.896 27.664 17.568 26.288 17.072 31.088C17.072 31.12 13.472 55.264 13.472 55.264C13.392 55.792 13.808 55.84 14.128 55.872C17.504 56.224 22.144 55.712 22.72 51.488C23.248 47.664 23.904 42.16 24.384 38.32C24.464 37.632 25.2 37.616 25.408 38.096L28.8 46.224C29.184 47.152 30.736 47.008 31.2 46.192C31.2 46.192 34.624 40.64 36.96 36.72C37.296 36.16 38.048 36.096 37.92 37.12C37.584 39.776 37.216 42.448 36.864 45.12C36.352 49.136 38.16 51.552 41.648 51.424C44.224 51.328 46.448 50.064 47.52 48.912C47.824 48.576 47.6 48.576 47.36 48.112C45.776 45.104 45.888 41.104 46.32 38.112C47.28 31.488 47.952 26.656 48.688 19.936C48.72 19.616 48.496 19.552 48.304 19.568C45.248 19.76 41.184 19.744 39.408 22.576C37.024 26.384 34.752 30.032 32.4 33.84C31.952 34.56 31.328 34.56 31.008 33.76L31.024 33.744ZM97.504 33.936C97.6 35.312 96.608 36.768 94.528 38.304C92.704 39.648 91.024 40.464 89.504 40.752C88.256 40.976 87.12 40.816 86.128 40.24C85.12 39.664 84.576 38.736 84.496 37.472V36.64L86.32 22.72C86.32 22.72 86.32 22.272 87.552 21.44C88.784 20.608 89.952 20.08 91.072 19.872C91.92 19.712 92.64 19.808 93.232 20.176C93.824 20.544 94.144 21.152 94.208 22.016C94.24 22.432 94.16 23.296 93.984 24.624C93.968 24.88 93.84 25.68 93.616 27.056C93.392 28.432 93.232 29.456 93.136 30.128C92.96 31.488 92.88 32.368 92.912 32.784C92.944 33.296 93.104 33.712 93.392 34C93.664 34.304 94.048 34.4 94.512 34.32C94.752 34.272 95.088 34.096 95.552 33.792C96 33.488 96.368 33.296 96.64 33.248C96.848 33.216 97.04 33.248 97.216 33.408C97.392 33.552 97.504 33.744 97.52 33.984M74.496 16.144C75.296 15.104 76.368 14.128 77.68 13.232C78.992 12.336 80.2561 11.776 81.44 11.552C82.3521 11.376 83.12 11.488 83.744 11.872C84.384 12.256 84.736 12.912 84.8 13.84C84.832 14.288 84.752 15.216 84.56 16.64C83.696 22.288 82.912 27.92 82.096 33.552C81.136 40.224 82.944 40.592 82.336 41.12C81.152 42.144 79.456 43.104 77.952 43.344C74.656 43.856 72.64 41.792 73.2 37.856C74.048 31.424 74.976 25.024 75.824 18.592C75.984 17.424 75.744 16.56 74.496 16.144ZM95.504 12.864C95.584 13.984 95.168 15.008 94.256 15.936C93.344 16.864 92.304 17.44 91.152 17.648C90.304 17.808 89.552 17.696 88.896 17.328C88.24 16.96 87.888 16.336 87.824 15.472C87.744 14.352 88.16 13.328 89.072 12.4C89.984 11.472 91.024 10.896 92.176 10.688C92.992 10.544 93.744 10.656 94.416 11.056C95.088 11.456 95.456 12.064 95.504 12.864ZM70.816 35.856C71.024 34.224 71.648 30.448 72.144 27.472C72.512 25.232 71.472 23.44 68.912 23.76C67.2 24.016 65.472 24.272 63.76 24.528C63.76 24.528 63.504 24.592 63.568 24.832C63.616 25.008 64 25.712 63.872 26.832C62.944 24.672 61.264 24.144 58.464 24.576C53.136 25.408 49.488 31.472 48.688 37.216C47.92 42.832 49.936 48.224 55.056 47.424C57.904 46.976 60.368 44.624 62.144 41.68C62.24 44.576 64.16 46.048 66.96 45.6C68.208 45.408 69.792 44.544 70.8 43.728C71.632 43.056 69.84 43.424 70.816 35.84V35.856ZM63.152 34.96C62.72 38.112 61.296 40.784 59.296 41.104C57.312 41.408 56.624 39.056 57.056 35.92C57.488 32.768 58.912 30.048 60.912 29.744C62.896 29.44 63.584 31.824 63.152 34.976V34.96Z" fill="white"/>
</g>
<defs>
<clipPath id="clip0_102_917">
<rect width="112.816" height="80" fill="white"/>
</clipPath>
</defs>
</svg>
